<svg width="70" height="70" viewBox="0 0 70 70" fill="none" xmlns="http://www.w3.org/2000/svg">
<path fill-rule="evenodd" clip-rule="evenodd" d="M0 4.66667C0 2.08934 2.08934 0 4.66667 0H65.3333C67.9107 0 70 2.08934 70 4.66667V65.3333C70 67.9107 67.9107 70 65.3333 70H4.66667C2.08934 70 0 67.9107 0 65.3333V4.66667ZM21.3362 58.8284L26.6065 60.7466C27.3341 61.0114 27.7093 61.816 27.4445 62.5437C27.1796 63.2714 26.375 63.6466 25.6474 63.3817L20.3771 61.4635C19.6494 61.1987 19.2742 60.3941 19.5391 59.6664C19.8039 58.9387 20.6085 58.5635 21.3362 58.8284ZM30.4405 58.4118L19.9 54.5754C19.1723 54.3105 18.3677 54.6857 18.1029 55.4134C17.838 56.1411 18.2132 56.9456 18.9409 57.2105L29.4814 61.0469C30.209 61.3118 31.0136 60.9366 31.2785 60.2089C31.5433 59.4812 31.1681 58.6766 30.4405 58.4118ZM19.7813 50.8019L32.9569 55.5974C33.6846 55.8623 34.0598 56.6669 33.7949 57.3946C33.5301 58.1222 32.7255 58.4974 31.9978 58.2326L18.8222 53.437C18.0945 53.1722 17.7193 52.3676 17.9842 51.6399C18.249 50.9122 19.0536 50.5371 19.7813 50.8019ZM33.497 52.0638L21.639 47.7478C20.9113 47.4829 20.1067 47.8581 19.8418 48.5858C19.577 49.3135 19.9522 50.1181 20.6799 50.3829L32.5379 54.6989C33.2656 54.9637 34.0702 54.5885 34.335 53.8609C34.5999 53.1332 34.2247 52.3286 33.497 52.0638ZM33.078 51.1652L22.5375 47.3288C21.0822 46.7991 20.3318 45.1899 20.8615 43.7345L21.4443 42.1333C22.2745 39.8522 21.798 37.2881 21.0721 34.9717C20.381 32.7662 20.02 29.6483 21.3459 26.0056C23.9944 18.7288 32.0404 14.9769 39.3171 17.6255C46.5938 20.274 50.3457 28.3199 47.6972 35.5966C46.3713 39.2394 44.0907 41.3958 42.1435 42.6411C40.0985 43.9489 38.0853 45.6069 37.2551 47.888L36.6723 49.4892C36.1426 50.9445 34.5334 51.6949 33.078 51.1652ZM23.7246 25.7529C26.1606 20.5273 32.0256 17.7924 37.5945 19.2853C38.1555 19.4357 38.4367 20.0442 38.2381 20.59C38.0394 21.1357 37.4365 21.411 36.8728 21.2712C32.4005 20.162 27.7348 22.3376 25.7098 26.4766C25.4546 26.9983 24.8562 27.2832 24.3104 27.0845C23.7647 26.8859 23.4793 26.2793 23.7246 25.7529ZM18.3523 21.9318L13.0821 20.0135C12.3544 19.7487 11.5498 20.1239 11.2849 20.8516C11.0201 21.5792 11.3953 22.3838 12.1229 22.6487L17.3932 24.5669C18.1209 24.8317 18.9255 24.4566 19.1903 23.7289C19.4552 23.0012 19.08 22.1966 18.3523 21.9318ZM24.9095 9.2162L27.2798 14.2992C27.607 15.001 27.3034 15.8353 26.6016 16.1625C25.8998 16.4898 25.0655 16.1862 24.7383 15.4843L22.368 10.4013C22.0408 9.69951 22.3444 8.86527 23.0462 8.53801C23.748 8.21075 24.5823 8.51438 24.9095 9.2162ZM41.3564 7.92295L39.4382 13.1932C39.1733 13.9209 39.5485 14.7255 40.2762 14.9903C41.0038 15.2552 41.8084 14.88 42.0733 14.1523L43.9915 8.88206C44.2564 8.15439 43.8812 7.34979 43.1535 7.08494C42.4258 6.82009 41.6212 7.19528 41.3564 7.92295ZM50.6762 22.8149L55.7592 20.4446C56.461 20.1174 57.2953 20.421 57.6225 21.1228C57.9498 21.8246 57.6462 22.6589 56.9444 22.9861L51.8613 25.3564C51.1595 25.6836 50.3253 25.38 49.998 24.6782C49.6708 23.9764 49.9744 23.1421 50.6762 22.8149ZM57.8792 36.3184L52.609 34.4002C51.8813 34.1353 51.0767 34.5105 50.8118 35.2382C50.547 35.9658 50.9222 36.7704 51.6499 37.0353L56.9201 38.9535C57.6478 39.2184 58.4524 38.8432 58.7172 38.1155C58.9821 37.3878 58.6069 36.5832 57.8792 36.3184Z" fill="#2F8DE7"/>
</svg>
